Coordinates
version=1
nRows=27
nColumns=33
inDegrees=yes

Units are S.I. units (second, meters, Newtons, ...)
Angles are in degrees.

endheader
time	ground_thorax_rot_x	ground_thorax_rot_y	ground_thorax_rot_z	ground_thorax_tx	ground_thorax_ty	ground_thorax_tz	clav_prot_r	clav_elev_r	scapula_abduction_r	scapula_elevation_r	scapula_upward_rot_r	scapula_winging_r	shoulder_elv_r	plane_of_elev_r	axial_rot_r	elbow_flexion_r	pro_sup_r	wrist_flex_r	wrist_dev_r	clav_prot_l	clav_elev_l	scapula_abduction_l	scapula_elevation_l	scapula_upward_rot_l	scapula_winging_l	shoulder_elv_l	plane_of_elev_l	axial_rot_l	elbow_flexion_l	pro_sup_l	wrist_flex_l	wrist_dev_l	
2.4000	0.755928	1.104115	12.752001	-0.112960	1.032025	0.016355	10.299293	-7.782220	18.112758	-1.068007	0.445911	-4.847498	-53.499955	-71.843176	88.455573	-55.652785	-129.609886	48.000614	-25.000000	7.903377	-0.042318	-8.314420	-21.649161	-34.593416	-3.036052	51.697252	-36.717780	2.401534	55.526985	34.530976	-5.096797	-25.000000	
2.4100	0.725791	1.103936	12.786750	-0.113136	1.031818	0.016406	10.263600	-7.882372	18.029190	-1.133316	0.386855	-4.775458	-53.532483	-71.842945	88.331453	-55.693120	-129.526324	48.131489	-25.000000	7.925756	-0.011407	-8.343796	-21.659686	-34.552659	-3.021970	51.706816	-36.650250	2.354850	55.483254	34.553327	-5.267624	-25.000000	
2.4200	0.661208	1.129008	12.817043	-0.113302	1.031635	0.016456	10.194688	-8.080024	17.861621	-1.258013	0.259864	-4.631264	-53.599342	-71.853881	88.079584	-55.768516	-129.356514	48.395900	-25.000000	7.968677	0.061826	-8.401112	-21.701031	-34.489835	-2.998424	51.718141	-36.546974	2.262429	55.385178	34.599997	-5.613194	-25.000000	
2.4300	0.569611	1.177659	12.844529	-0.113458	1.031466	0.016497	10.098323	-8.354650	17.626264	-1.430440	0.080868	-4.429577	-53.691970	-71.872591	87.725980	-55.878483	-129.121220	48.765654	-25.000000	8.028523	0.166461	-8.482249	-21.764574	-34.409924	-2.966140	51.732212	-36.414781	2.129624	55.238966	34.666956	-6.097888	-25.000000	
2.4400	0.459140	1.249716	12.862565	-0.113601	1.031303	0.016544	9.977378	-8.685107	17.332730	-1.636558	-0.138072	-4.182475	-53.804570	-71.893817	87.292201	-56.032425	-128.842582	49.216268	-25.000000	8.105044	0.289012	-8.589007	-21.837671	-34.314634	-2.922930	51.754609	-36.257551	1.954289	55.038165	34.753116	-6.693038	-25.000000	
2.4500	0.360410	1.325986	12.871451	-0.113725	1.031115	0.016599	9.858951	-8.986986	17.049628	-1.823752	-0.340961	-3.950598	-53.906955	-71.909946	86.887943	-56.207021	-128.600580	49.630468	-25.000000	8.181805	0.391318	-8.700186	-21.892905	-34.224733	-2.875888	51.787056	-36.107260	1.769272	54.825868	34.838161	-7.249754	-25.000000	
2.4600	0.279724	1.407563	12.867639	-0.113840	1.030900	0.016673	9.742803	-9.253876	16.775039	-1.985046	-0.530714	-3.735419	-53.995903	-71.924294	86.519740	-56.417915	-128.411298	49.997138	-25.000000	8.261332	0.465612	-8.821894	-21.923520	-34.142583	-2.821802	51.835975	-35.962222	1.557192	54.597484	34.922966	-7.760509	-25.000000	
2.4700	0.237309	1.475406	12.857075	-0.113937	1.030639	0.016755	9.649849	-9.427658	16.559586	-2.083701	-0.669987	-3.579945	-54.049120	-71.938032	86.271933	-56.631895	-128.335262	50.224063	-25.000000	8.327666	0.488956	-8.931544	-21.917352	-34.088825	-2.770530	51.901079	-35.851312	1.352592	54.406100	34.987145	-8.114057	-25.000000	
2.4800	0.223257	1.536279	12.841621	-0.114020	1.030350	0.016849	9.564206	-9.538636	16.364707	-2.135513	-0.786705	-3.456399	-54.074195	-71.962926	86.115128	-56.863689	-128.373872	50.329912	-25.000000	8.385257	0.468449	-9.036723	-21.882556	-34.066097	-2.720292	51.995797	-35.768496	1.137479	54.250334	35.032018	-8.362135	-25.000000	
2.4900	0.225480	1.589361	12.829057	-0.114065	1.030043	0.016932	9.478565	-9.611771	16.170935	-2.155612	-0.898602	-3.347047	-54.078056	-72.010767	86.033204	-57.093391	-128.519697	50.325569	-25.000000	8.430632	0.419244	-9.129842	-21.837805	-34.080995	-2.677786	52.120412	-35.718493	0.925705	54.155573	35.051236	-8.535721	-25.000000	
2.5000	0.206758	1.677791	12.817276	-0.114075	1.029772	0.017028	9.321045	-9.773203	15.806747	-2.208847	-1.124114	-3.131620	-54.091818	-72.128192	85.897899	-57.413033	-128.787838	50.291776	-25.000000	8.488221	0.361649	-9.254519	-21.807376	-34.144258	-2.629971	52.338674	-35.672416	0.616825	54.087751	35.057700	-8.860767	-25.000000	
2.5100	0.168106	1.792626	12.808753	-0.114036	1.029536	0.017123	9.106442	-10.005715	15.307284	-2.289130	-1.440187	-2.831666	-54.116653	-72.304390	85.724030	-57.792423	-129.159867	50.227854	-25.000000	8.552710	0.303509	-9.398765	-21.796669	-34.250061	-2.582089	52.627248	-35.634312	0.248110	54.058680	35.045094	-9.302096	-25.000000	
2.5200	0.119649	1.934897	12.796890	-0.113977	1.029324	0.017240	8.841206	-10.287648	14.689061	-2.382438	-1.833102	-2.462675	-54.154557	-72.531094	85.515808	-58.255839	-129.634190	50.139171	-25.000000	8.631447	0.245610	-9.573786	-21.799403	-34.384803	-2.526755	52.972253	-35.588148	-0.191003	54.046838	35.013451	-9.837391	-25.000000	
2.5300	0.076406	2.072209	12.783512	-0.113911	1.029117	0.017355	8.585522	-10.550670	14.088917	-2.460016	-2.222133	-2.108548	-54.203962	-72.765278	85.317304	-58.732341	-130.139785	50.036322	-25.000000	8.715649	0.202562	-9.756375	-21.816119	-34.518361	-2.470083	53.293455	-35.534733	-0.611285	54.055770	34.955367	-10.336083	-25.000000	
2.5400	0.041769	2.204969	12.767331	-0.113864	1.028918	0.017478	8.342586	-10.790180	13.512702	-2.518072	-2.606215	-1.773430	-54.265514	-73.005794	85.126337	-59.241705	-130.687148	49.919708	-24.999999	8.810200	0.170578	-9.955854	-21.841600	-34.648436	-2.407096	53.589468	-35.468791	-1.021713	54.076931	34.868888	-10.790217	-25.000000	
2.5500	0.014860	2.313977	12.755045	-0.113854	1.028703	0.017584	8.143617	-10.980104	13.022869	-2.540782	-2.965774	-1.493164	-54.355077	-73.248430	84.959415	-59.777798	-131.329813	49.758142	-24.999999	8.917549	0.157722	-10.176398	-21.885820	-34.779323	-2.338093	53.819937	-35.397380	-1.350957	54.141607	34.708445	-11.116956	-25.000000	
2.5600	-0.007259	2.402350	12.746924	-0.113880	1.028479	0.017677	7.981153	-11.126005	12.607404	-2.534232	-3.298572	-1.260939	-54.465134	-73.491304	84.813144	-60.341561	-132.047441	49.565759	-24.999999	9.035477	0.161961	-10.414113	-21.946087	-34.909400	-2.263951	53.997672	-35.322832	-1.610634	54.252579	34.485905	-11.336602	-25.000000	
2.5700	-0.029899	2.473223	12.743552	-0.113926	1.028229	0.017754	7.847235	-11.229786	12.254059	-2.501685	-3.600930	-1.071424	-54.591458	-73.731363	84.686831	-60.937757	-132.824120	49.360971	-24.999998	9.161139	0.184713	-10.664082	-22.025598	-35.042144	-2.187821	54.135164	-35.256987	-1.803177	54.436432	34.206402	-11.465209	-25.000000	
2.5800	-0.058258	2.542914	12.735451	-0.113964	1.027989	0.017830	7.714390	-11.319372	11.914996	-2.468846	-3.873114	-0.894636	-54.707935	-73.958460	84.570859	-61.555779	-133.572405	49.194144	-24.999996	9.284753	0.213516	-10.908956	-22.109422	-35.171096	-2.113915	54.278923	-35.204145	-1.982071	54.677441	33.924124	-11.587247	-25.000000	
2.5900	-0.089616	2.610954	12.723718	-0.113991	1.027762	0.017906	7.585375	-11.392121	11.597201	-2.435804	-4.109350	-0.734485	-54.809096	-74.168163	84.467032	-62.184778	-134.279782	49.071162	-24.999993	9.404215	0.245907	-11.144465	-22.193630	-35.293048	-2.043044	54.427682	-35.162749	-2.144567	54.971586	33.641977	-11.700422	-25.000000	
2.6000	-0.110580	2.670100	12.697579	-0.114000	1.027560	0.017984	7.479202	-11.424516	11.353007	-2.401577	-4.261032	-0.622433	-54.866517	-74.324247	84.394511	-62.770354	-134.837865	49.039277	-24.999988	9.506192	0.275672	-11.342804	-22.260398	-35.382300	-1.980766	54.565658	-35.127501	-2.279963	55.300569	33.393239	-11.787175	-24.999999	
2.6100	-0.121647	2.723390	12.667024	-0.113992	1.027394	0.018060	7.390201	-11.426570	11.164102	-2.366568	-4.349021	-0.546516	-54.884034	-74.439944	84.345445	-63.313108	-135.290870	49.081389	-24.999979	9.593016	0.297548	-11.510931	-22.309973	-35.450779	-1.925787	54.700063	-35.098405	-2.386936	55.660712	33.159894	-11.853246	-24.999999	
2.6200	-0.122630	2.782549	12.635374	-0.113976	1.027270	0.018137	7.302432	-11.426224	10.983229	-2.334778	-4.424375	-0.475641	-54.860822	-74.544579	84.310571	-63.849919	-135.783286	49.188397	-24.999962	9.676527	0.281026	-11.683124	-22.333593	-35.545034	-1.867863	54.865788	-35.080846	-2.469763	56.071557	32.864404	-11.909291	-24.999998	
2.6300	-0.125542	2.854399	12.612856	-0.113959	1.027182	0.018215	7.197590	-11.448116	10.760050	-2.309598	-4.532956	-0.378772	-54.824399	-74.675530	84.269675	-64.432179	-136.415832	49.301783	-24.999933	9.767984	0.235622	-11.881191	-22.347576	-35.680575	-1.802501	55.074417	-35.065956	-2.534440	56.531984	32.480450	-11.976450	-24.999997	
2.6400	-0.132605	2.938392	12.590540	-0.113938	1.027096	0.018290	7.078091	-11.484097	10.503990	-2.289164	-4.661420	-0.263342	-54.778448	-74.828194	84.228916	-65.075017	-137.158353	49.425422	-24.999880	9.864975	0.172738	-12.096867	-22.357053	-35.843967	-1.732267	55.319574	-35.048010	-2.575882	57.058225	32.021653	-12.055048	-24.999994	
2.6500	-0.148831	3.018902	12.570272	-0.113893	1.027012	0.018355	6.961127	-11.508275	10.266056	-2.273301	-4.754357	-0.161324	-54.730236	-74.975090	84.199760	-65.737462	-137.850079	49.552907	-24.999785	9.953148	0.130257	-12.288615	-22.374192	-35.979948	-1.670130	55.560939	-35.018367	-2.580483	57.616215	31.578101	-12.135326	-24.999990	
2.6600	-0.171807	3.097030	12.545573	-0.113832	1.026910	0.018411	6.850318	-11.518838	10.052388	-2.259986	-4.812153	-0.075588	-54.679690	-75.116753	84.186258	-66.437946	-138.489526	49.683522	-24.999614	10.033571	0.105298	-12.458312	-22.395008	-36.086145	-1.614327	55.798959	-34.974175	-2.552538	58.214867	31.149360	-12.215807	-24.999983	
